<svg xmlns="http://www.w3.org/2000/svg" version="1.1" xmlns:xlink="http://www.w3.org/1999/xlink" width="512" height="512"><svg xmlns="http://www.w3.org/2000/svg" width="512" height="512" viewBox="0 0 512 512" fill="none"><path d="M329.032 88.9371C329.032 129.247 296.405 161.874 256.095 161.874C215.785 161.874 183.158 129.247 183.158 88.9371C183.158 48.6274 215.785 16 256.095 16C296.405 16 329.032 48.6274 329.032 88.9371Z" fill="#E31019"></path><path d="M328.941 425.695C328.941 405.359 318.728 385.385 306.256 371.105C296.856 360.44 291.795 353.752 291.524 342.183C291.162 328.717 305.533 314.617 310.594 307.839C320.626 295.637 328.851 280.182 328.851 259.575C328.851 219.718 295.681 187.181 255.281 187.181C216.689 187.271 183.158 219.537 183.158 259.395C183.158 278.465 190.207 296.36 200.692 308.11C206.747 314.979 218.858 328.988 218.496 342.454C218.135 353.933 215.875 361.886 205.934 371.828C191.382 386.379 183.158 404.275 183.158 425.514C183.158 465.372 215.604 497.909 255.462 497.999C295.953 498.18 328.941 465.553 328.941 425.695Z" fill="#37A7DF"></path></svg><style>@media (prefers-color-scheme: light) { :root { filter: none; } }
@media (prefers-color-scheme: dark) { :root { filter: none; } }
</style></svg>